<?xml version="1.0" encoding="UTF-8" standalone="no"?>
<svg
   xmlns:dc="http://purl.org/dc/elements/1.1/"
   xmlns:cc="http://creativecommons.org/ns#"
   xmlns:rdf="http://www.w3.org/1999/02/22-rdf-syntax-ns#"
   xmlns:svg="http://www.w3.org/2000/svg"
   xmlns="http://www.w3.org/2000/svg"
   xml:space="preserve"
   width="12032.313"
   height="9243.7227"
   viewBox="0 0 12032.313 9243.7227"><defs
     id="defs6" /><g
     id="g10"
     transform="matrix(1.3333333,0,0,-1.3333333,1.3333333,9242.3889)">
     <path
       d="m 4280.9842,6658.509 c 69.6827,13.9983 39.7602,-26.5312 63.453,-78.179 92.2513,47.7261 73.6608,113.8666 141.0208,173.6722 40.3183,35.8005 159.7388,91.4933 226.0706,99.9856 -77.1505,-180.5811 -338.4022,-461.8831 -393.3674,-646.7008 -85.2339,-286.6009 -111.6411,-237.25 -291.2239,-411.1813 -106.3426,-103.0025 -248.0876,-361.0006 -67.3339,-477.6029 44.6752,-28.8204 211.7393,-113.754 268.2992,-64.9996 -51.1449,30.8019 -450.5088,54.8113 -265.4058,356.2538 70.3434,114.5568 242.6198,279.5306 341.5096,372.7839 134.5172,126.8434 290.8374,475.0589 397.4275,675.6152 62.5643,117.7166 177.7479,291.1714 0.3265,270.7307 -29.1356,-3.3548 -54.9124,-16.0837 -73.747,-26.5084 L 4385.6977,6748.88 c -44.5926,-26.2715 -89.0694,-41.3937 -121.2434,-83.645 l -134.3682,-31.7525 c -49.6587,-11.1943 -103.4416,-22.9026 -143.0209,-39.1777 -5.4712,-208.3056 119.8108,-111.9566 -17.78,-289.9068 -63.4533,-82.0704 -127.2521,-154.7856 -193.1862,-217.4846 -180.6823,-171.8336 -364.2506,-175.549 -659.5648,-139.2757 C 2267.0365,6051.9688 1960.4866,5511.9404 1595.2904,4984.3185 1136.4282,4321.3686 662.2699,4593.5104 210.8381,4291.2686 150.9157,4251.149 14.0644,4139.2902 0.3708,4076.1746 c 443.2062,97.4262 753.8278,-18.2679 981.5383,13.4118 266.633,37.095 467.0206,316.7946 596.8658,461.2978 458.9861,510.8102 708.3193,573.1452 1472.3317,632.7785 -47.5572,31.1621 -211.165,33.969 -268.5016,34.8021 -349.4503,5.0774 -503.1474,-39.7968 -829.1736,-103.7194 33.001,115.0713 352.8953,428.6196 438.4593,489.3375 618.5073,438.8757 1197.0341,-251.2809 1658.4704,739.0649 66.1179,141.8987 169.6159,27.169 203.3184,159.1345 l -191.8502,-8.5484 c 4.1842,15.6597 -6.4321,49.835 78.6404,77.252 42.7915,13.7948 84.0444,14.2863 129.8679,15.2433 l 1.529,64.9825 c 0.1417,6.0211 3.6329,6.1954 9.1176,7.2973 z M 181.5562,4148.2553 c 21.5615,42.0563 49.5669,58.6741 85.3538,86.5735 187.9775,146.5858 397.8819,107.138 664.5823,142.109 94.1503,12.346 195.948,39.3503 291.0966,47.1031 -81.4963,-267.6238 -518.2781,-231.1141 -743.0989,-230.0973 -129.8943,0.5893 -179.9694,-22.9099 -297.9338,-45.6883 z m 4495.2647,-1406.349 h -844.8213 c -54.7087,0 -96.6563,-12.185 -124.0115,-35.682 -27.3549,-23.4969 -50.1523,-65.2731 -68.389,-126.1942 H 3435.061 v 869.5061 c 612.7648,0 1417.5287,0 2030.2929,0 V 2142.0933 1803.8163 C 4832.9626,1483.9611 4217.667,1324.0077 3621.5904,1324.0077 c -589.9675,0 -1070.513,134.0266 -1442.5484,401.2101 -467.7797,336.8075 -702.1253,805.0306 -702.1253,1404.6701 0,557.8645 207.902,1002.5898 624.6179,1332.4348 395.7434,313.3092 920.9696,469.9644 1575.6786,469.9644 207.9023,0 446.8629,12.4081 631.0556,-24.1443 184.1939,-36.5525 394.2783,-96.5948 628.2655,-183.634 121.6383,-45.2475 165.9025,-99.4388 216.9663,-99.4388 37.3859,0 150.1546,52.1461 200.3063,91.3096 l 175.5964,-155.2927 -726.4823,-820.2512 -154.008,141.7932 c 30.3951,102.0731 -24.6538,165.0799 -94.983,211.8651 -334.5027,222.52 -1022.1922,272.1064 -1557.5896,46.9109 -391.794,-164.7936 -709.7003,-460.711 -709.7003,-1023.7014 0,-423.6855 211.8685,-673.424 485.4798,-856.4809 500.5106,-334.8629 1243.057,-301.4997 1904.701,-2.2427 z M 299.2374,380.7215 v 2937.8778 c 0,54.1341 -11.5092,95.4241 -33.7065,123.8675 -22.1973,28.444 -61.6589,52.3007 -119.2071,69.734 v 160.0835 h 1026.0023 v -160.0835 c -57.5481,-16.5163 -96.7898,-38.7005 -119.207,-68.8164 -21.9782,-29.5254 -33.7065,-70.6515 -33.7065,-124.7851 V 380.7215 c 0,-55.97 11.7306,-98.0058 34.5285,-127.5386 23.2418,-30.1079 62.4813,-52.3001 118.385,-68.8156 V 0.2835 H 146.3238 v 184.0838 c 57.5482,18.351 97.0098,41.2898 119.2071,69.7332 22.1973,28.4437 33.7065,70.6507 33.7065,126.621 z m 8722.6327,2010.3353 -111.7678,-242.6998 -19.2138,12.1221 c 0.4689,4.9002 0.703,9.0272 0.703,12.1223 0,17.0223 -13.356,35.5921 -39.8335,55.194 -81.5412,62.4157 -177.141,93.6235 -287.0346,93.6235 -48.503,0 -91.3824,-6.4477 -128.6385,-19.6013 -26.9458,-10.3167 -48.7372,-25.2762 -65.6081,-45.6514 -16.636,-20.1175 -25.0716,-42.0406 -25.0716,-65.7689 0,-38.9457 21.3228,-65.5109 63.7339,-79.4384 22.0252,-7.2218 69.1225,-14.7013 141.5253,-22.9546 l 107.7846,-12.1224 c 63.9678,-7.4792 115.9855,-17.7959 155.5849,-30.9498 39.5986,-13.1539 74.5118,-31.4657 105.2068,-55.1942 31.1635,-24.7598 55.7668,-57.2576 73.8087,-97.4926 18.0423,-40.4929 27.1806,-83.565 27.1806,-129.4741 0,-72.4751 -21.3225,-137.2119 -63.7333,-193.6959 -38.4276,-51.3255 -98.178,-89.4971 -179.2505,-113.9992 -60.4531,-18.8278 -125.1236,-28.1132 -194.2464,-28.1132 -123.952,0 -246.2638,32.7557 -367.1699,98.0087 -25.5405,13.1536 -40.7708,19.6016 -45.9256,19.6016 -5.8577,0 -15.2308,-5.6741 -28.1179,-16.5064 l -19.9168,11.0902 101.6926,253.0165 19.9165,-10.5743 c 0,-4.3846 0,-7.7378 0,-9.8011 0,-22.6964 9.841,-43.5881 29.2893,-62.6734 29.7575,-29.145 75.9177,-54.421 138.0109,-75.57 62.3277,-21.1493 121.3747,-31.7239 177.1413,-31.7239 60.9219,0 112.9396,11.3482 155.8193,34.0452 23.8998,12.638 42.8794,29.4024 56.9384,50.2937 14.2929,20.8911 21.3225,42.8142 21.3225,65.5106 0,34.3032 -16.6362,58.8053 -50.1435,73.5067 -23.4314,10.0587 -70.5285,19.3436 -141.5256,27.8549 l -105.91,12.1221 c -70.7627,8.2533 -121.14,15.9908 -150.4298,23.2126 -29.289,7.2215 -58.5786,19.086 -87.8675,35.3344 -41.7079,22.697 -74.5121,56.742 -98.1777,102.1351 -21.5569,41.0091 -32.3354,87.9497 -32.3354,140.823 0,87.4335 27.1806,159.6506 81.7756,216.65 71.4659,75.312 178.7819,112.9677 321.9477,112.9677 59.7501,0 115.7511,-6.7057 167.3005,-20.1175 51.7833,-13.4119 116.2196,-37.9137 193.7772,-73.7643 26.4779,-11.6064 42.6456,-17.2803 48.7378,-17.2803 9.6066,0 20.6195,5.6739 33.5066,17.2803 z m -1751.0737,-946.374 -355.8968,680.4885 v -604.1948 c 0,-15.0129 3.3825,-26.3339 9.9062,-33.9631 6.5234,-7.6294 18.121,-13.782 35.0339,-18.7041 v -23.6265 h -282.6878 v 23.6265 c 16.9126,4.9221 28.5103,11.0747 35.0336,18.7041 6.524,7.6292 9.9063,18.9502 9.9063,33.9631 v 833.0754 c 0,14.5202 -3.3823,25.5952 -9.9063,33.2246 -6.5233,7.6292 -18.121,14.0281 -35.0336,18.7041 v 23.6265 h 371.3601 v -23.6265 c -22.2287,-5.6605 -33.3425,-18.9504 -33.3425,-39.6235 0,-9.5981 3.0523,-20.8508 9.9059,-33.2243 l 296.0411,-534.4787 233.3347,525.8648 c 10.1863,22.9566 17.6377,38.1469 17.6377,48.2371 0,19.6886 -11.8392,30.7636 -35.2757,33.2246 v 23.6265 h 365.32 v -23.6265 c -16.9129,-4.676 -28.5106,-11.0749 -35.0339,-18.7041 -6.5237,-7.6294 -9.9063,-18.7044 -9.9063,-33.2246 v -833.0754 c 0,-15.0129 3.3826,-26.3339 9.9063,-33.9631 6.5233,-7.6294 18.121,-13.782 35.0339,-18.7041 v -23.6265 h -301.534 v 23.6265 c 16.4299,4.4297 28.0273,10.3366 34.7925,18.4581 6.7651,7.8752 10.1477,19.1962 10.1477,34.2091 v 604.1948 l -270.4011,-681.9551 z m -1438.5676,432.658 v -270.2265 h 572.2222 c 14.2555,0 25.128,3.4458 32.618,10.0905 7.4897,6.6446 13.7721,18.4578 18.3626,35.6853 h 23.195 v -208.2073 h -74.1756 -551.3309 -277.4852 v 23.6265 c 16.9129,4.9221 28.5103,11.0747 35.034,18.7041 6.5236,7.6292 9.9059,18.9502 9.9059,33.9631 v 832.337 c 0,15.0128 -3.3823,26.3336 -9.9059,33.963 -6.5237,7.6292 -18.1211,14.0281 -35.034,18.7041 v 23.6265 h 885.5955 v -208.2075 h -23.1948 c -4.5907,16.9815 -10.8116,28.862 -18.3628,35.6856 -7.4291,6.7127 -18.3628,10.0905 -32.3762,10.0905 h -555.0678 v -233.3103 h 484.4143 c 14.0136,0 24.8862,3.4457 32.3761,10.0904 7.4897,6.6447 13.7722,18.4581 18.3626,35.6857 h 23.1951 v -248.0769 h -23.1951 c -4.5904,16.7355 -10.8726,28.5486 -18.3626,35.4396 -7.4899,6.891 -18.3628,10.3366 -32.3761,10.3366 z M 5101.3363,589.4949 h 331.9906 c 48.9742,0 83.6745,1.4766 103.8546,4.43 20.1807,2.7071 38.8843,8.8597 55.6192,17.9651 36.669,19.6883 54.8804,55.3731 54.8804,106.8083 0,51.435 -18.2114,87.1197 -54.8804,106.8078 -17.2273,9.5981 -35.6848,15.7507 -55.1268,18.4575 -19.442,2.7074 -54.3886,3.9376 -104.347,3.9376 h -331.9906 z m 0,-162.4269 V 100.984 c 0,-14.5199 3.4453,-25.5946 10.3363,-33.4698 6.8907,-8.1213 18.7036,-14.0278 35.4385,-18.4575 v -23.626 h -307.1345 v 23.626 c 17.227,4.9218 29.0401,11.0744 35.6845,18.7035 6.645,7.6292 10.0902,18.7039 10.0902,33.2238 v 833.053 c 0,15.012 -3.4452,26.3327 -10.0902,33.9619 -6.6444,7.6292 -18.4575,14.0278 -35.6845,18.7036 v 23.6259 h 616.2375 c 75.0612,0 134.6176,-4.43 178.6697,-13.0436 44.0521,-8.6134 82.444,-23.8717 115.1757,-45.5287 37.8995,-25.1025 66.2011,-59.0641 85.151,-101.886 17.7191,-41.345 26.5788,-85.6431 26.5788,-132.8947 0,-160.9503 -89.3347,-254.961 -267.7581,-282.5243 l 191.2207,-270.9575 c 33.4698,-47.4976 58.0799,-78.014 73.8303,-91.7958 15.7507,-13.5357 34.7003,-21.1646 57.3418,-22.6411 v -23.626 h -356.1089 v 23.626 c 24.364,3.9376 36.6692,12.5509 36.6692,25.8403 0,8.6136 -11.3207,29.5322 -33.9618,62.7559 L 5362.4497,427.068 Z M 3239.0875,847.8884 v -746.179 c 0,-15.0123 3.4455,-26.3328 10.0902,-33.9619 6.6447,-7.6292 18.4575,-13.7818 35.6845,-18.7036 V 25.418 h -307.1344 v 23.6259 c 17.227,4.9218 29.0401,11.0744 35.6848,18.7036 6.6447,7.6291 10.0902,18.9496 10.0902,33.9619 v 746.179 h -304.1813 c -14.2738,0 -25.3485,-3.1991 -32.9777,-9.8438 -7.6289,-6.3987 -14.0275,-18.4575 -18.7035,-35.9309 h -23.626 v 208.2274 l 73.4655,-0.01 c 0.6078,-0.012 1.2212,-0.019 1.8417,-0.019 h 197.157 l 702.0972,-0.066 V 802.1097 h -23.6256 c -4.6761,17.4734 -11.0747,29.5322 -18.7039,35.9309 -7.6288,6.6447 -18.9499,9.8438 -33.7158,9.8438 h -303.4429 z m -1561.513,-148.14 V 101.7221 c 0,-15.0123 3.4455,-26.3327 10.0905,-33.9619 6.6444,-7.6291 18.4575,-13.7817 35.6845,-18.7035 v -23.626 h -287.9388 v 23.626 c 17.2273,4.9218 29.0401,11.0744 35.6848,18.7035 6.645,7.6292 10.0902,18.9496 10.0902,33.9619 v 833.053 c 0,14.52 -3.4452,25.5946 -10.0902,33.2238 -6.6447,7.6292 -18.4575,14.0278 -35.6848,18.7036 v 23.6259 h 233.9067 c 212.1557,-218.683 422.4853,-439.9917 634.339,-659.3057 v 583.7524 c 0,14.52 -3.4455,25.5946 -10.0902,33.2238 -6.6447,7.6292 -18.4578,14.0278 -35.6845,18.7036 v 23.6259 h 287.9385 v -23.6259 c -17.2273,-4.6758 -29.0401,-11.0744 -35.6848,-18.7036 -6.6447,-7.6292 -10.0902,-18.7038 -10.0902,-33.2238 l -0.011,-909.3444 h -167.207 l -90.2432,93.0198 c -3.4007,3.7936 -7.1609,7.8145 -11.2819,12.0654 L 2073.5243,292.712 c -131.9561,136.016 -263.753,271.1381 -395.9498,407.0364 z M 4061.7079,458.0753 V 187.8489 h 572.2223 c 14.2554,0 25.128,3.4457 32.618,10.0904 7.4897,6.6447 13.7721,18.4578 18.3625,35.6854 h 23.1951 V 25.4174 h -74.1756 -551.3309 -277.4852 v 23.6265 c 16.9129,4.9221 28.5103,11.0747 35.034,18.7041 6.5236,7.6292 9.9059,18.9502 9.9059,33.9631 v 832.337 c 0,15.0128 -3.3823,26.3335 -9.9059,33.963 -6.5237,7.6292 -18.1211,14.0281 -35.034,18.7041 v 23.6265 h 885.5955 V 802.1341 h -23.1948 c -4.5907,16.9816 -10.8116,28.8621 -18.3628,35.6857 -7.4291,6.7127 -18.3629,10.0905 -32.3762,10.0905 H 4061.7079 V 614.5999 h 484.4143 c 14.0137,0 24.8862,3.4458 32.3762,10.0905 7.4897,6.6447 13.7722,18.4581 18.3626,35.6857 h 23.195 V 412.2992 h -23.195 c -4.5904,16.7355 -10.8726,28.5486 -18.3626,35.4396 -7.49,6.891 -18.3628,10.3365 -32.3762,10.3365 z"
       style="fill:#fff;fill-opacity:1;fill-rule:evenodd;stroke:#1a1a18;stroke-width:0;stroke-linecap:butt;stroke-linejoin:miter;stroke-miterlimit:22.9256;stroke-dasharray:none;stroke-opacity:1"
       id="path12" /></g></svg>
